HIERARCHY
ROOT Hips
{
	OFFSET	0.00	0.00	0.00
	CHANNELS 6 Xposition Yposition Zposition Zrotation Xrotation Yrotation
	JOINT LeftUpLeg
	{
		OFFSET	 0.126116	-0.014019	-0.065224
		CHANNELS 3 Zrotation Xrotation Yrotation
		JOINT LeftLeg
		{
			OFFSET	 0.000000	 0.000000	 0.569914
			CHANNELS 3 Zrotation Xrotation Yrotation
			JOINT LeftFoot
			{
				OFFSET	 0.000000	 0.000000	 0.544423
				CHANNELS 3 Zrotation Xrotation Yrotation
				JOINT LeftToeBase
				{
					OFFSET	 0.000000	 0.000000	 0.207117
					CHANNELS 3 Zrotation Xrotation Yrotation
					End Site
					{
						OFFSET	 0.000000	 0.000000	 0.207117
					}
				}
			}
		}
	}
	JOINT RightUpLeg
	{
		OFFSET	-0.124023	-0.008373	-0.065224
		CHANNELS 3 Zrotation Xrotation Yrotation
		JOINT RightLeg
		{
			OFFSET	 0.000000	 0.000000	 0.570047
			CHANNELS 3 Zrotation Xrotation Yrotation
			JOINT RightFoot
			{
				OFFSET	 0.000000	 0.000000	 0.544354
				CHANNELS 3 Zrotation Xrotation Yrotation
				JOINT RightToeBase
				{
					OFFSET	 0.000000	 0.000000	 0.207540
					CHANNELS 3 Zrotation Xrotation Yrotation
					End Site
					{
						OFFSET	 0.000000	 0.000000	 0.207540
					}
				}
			}
		}
	}
	JOINT Spine
	{
		OFFSET	 0.000184	-0.007763	 0.117403
		CHANNELS 3 Zrotation Xrotation Yrotation
		JOINT Spine1
		{
			OFFSET	 0.000000	 0.000000	 0.137269
			CHANNELS 3 Zrotation Xrotation Yrotation
			JOINT Spine2
			{
				OFFSET	 0.000000	 0.000000	 0.156879
				CHANNELS 3 Zrotation Xrotation Yrotation
				JOINT LeftShoulder
				{
					OFFSET	 0.080501	-0.002496	 0.160144
					CHANNELS 3 Zrotation Xrotation Yrotation
					JOINT LeftArm
					{
						OFFSET	 0.000000	 0.000000	 0.164363
						CHANNELS 3 Zrotation Xrotation Yrotation
						JOINT LeftForeArm
						{
							OFFSET	 0.000000	 0.000000	 0.364576
							CHANNELS 3 Zrotation Xrotation Yrotation
							JOINT LeftHand
							{
								OFFSET	 0.000000	 0.000000	 0.360812
								CHANNELS 3 Zrotation Xrotation Yrotation
								JOINT LeftHandIndex1
								{
									OFFSET	 0.000000	 0.000000	 0.086006
									CHANNELS 3 Zrotation Xrotation Yrotation
									JOINT LeftHandIndex2
									{
										OFFSET	 0.000000	 0.000000	 0.047236
										CHANNELS 3 Zrotation Xrotation Yrotation
										JOINT LeftHandIndex3
										{
											OFFSET	-0.004284	-0.000551	 0.038166
											CHANNELS 3 Zrotation Xrotation Yrotation
											End Site
											{
												OFFSET	-0.004284	-0.000551	 0.038166
											}
										}
									}
								}
							}
						}
					}
				}
				JOINT Neck
				{
					OFFSET	 0.000000	 0.000000	 0.176489
					CHANNELS 3 Zrotation Xrotation Yrotation
					JOINT Head
					{
						OFFSET	 0.000000	-0.001747	 0.077940
						CHANNELS 3 Zrotation Xrotation Yrotation
						End Site
						{
							OFFSET	 0.000000	-0.001747	 0.077940
						}
					}
				}
				JOINT RightShoulder
				{
					OFFSET	-0.080363	 0.000306	 0.159706
					CHANNELS 3 Zrotation Xrotation Yrotation
					JOINT RightArm
					{
						OFFSET	 0.000000	 0.000000	 0.164196
						CHANNELS 3 Zrotation Xrotation Yrotation
						JOINT RightForeArm
						{
							OFFSET	 0.000000	 0.000000	 0.365611
							CHANNELS 3 Zrotation Xrotation Yrotation
							JOINT RightHand
							{
								OFFSET	 0.000000	 0.000000	 0.360648
								CHANNELS 3 Zrotation Xrotation Yrotation
								JOINT RightHandIndex1
								{
									OFFSET	 0.000000	 0.000000	 0.069977
									CHANNELS 3 Zrotation Xrotation Yrotation
									JOINT RightHandIndex2
									{
										OFFSET	 0.000000	 0.000000	 0.052305
										CHANNELS 3 Zrotation Xrotation Yrotation
										JOINT RightHandIndex3
										{
											OFFSET	 0.009002	-0.000782	 0.042196
											CHANNELS 3 Zrotation Xrotation Yrotation
											End Site
											{
												OFFSET	 0.009002	-0.000782	 0.042196
											}
										}
									}
								}
							}
						}
					}
				}
			}
		}
	}
}
MOTION
Frames:    5
Frame Time: 0.03333334
-0.000737	 0.046908	 1.277361	-0.016038	 3.523864	 0.469003	 4.553182	-6.158274	 178.209800	 2.143715	-11.167020	 0.496164	-0.025705	 69.770850	-0.043637	-2.385833	 28.452750	 0.000004	 2.796205	-5.620261	-178.217000	-0.797267	-9.569990	 0.724386	 4.609378	 68.783780	 1.748808	 2.384659	 28.388700	-0.000001	-7.480001	 7.065836	 1.588964	-3.238108	-6.068149	-0.575416	 9.760579	 9.149974	-0.929704	-90.959260	 68.360460	-177.373200	-7.528001	 3.427691	-22.482290	 24.873460	-0.119849	-0.941672	-7.660621	-23.891770	-5.092357	-2.027600	 6.559038	 9.033609	-5.188889	 0.308190	 3.541030	-5.234859	 0.342567	 0.430617	 4.704793	 21.704070	-7.898808	 5.253015	-16.541320	 2.350190	 88.694360	 66.483100	 176.769400	 7.733685	 6.106867	 8.147058	-25.550090	-9.333961	 27.133390	 4.654655	-23.085750	 5.976275	 1.803333	 3.979147	-15.098590	 4.898592	 3.004813	-9.310344	 5.224449	 0.395017	 2.014677
-0.001506	 0.052165	 1.277708	 0.086059	 4.739000	 0.527387	 4.508680	-7.515274	 178.207600	 2.164135	-10.665700	 0.475186	 0.304985	 69.234770	-0.434456	-2.385833	 28.452760	 0.000004	 2.511123	-6.758275	-178.212900	-0.855276	-8.676843	 0.648532	 4.007486	 68.003030	 2.452986	 2.384659	 28.388700	-0.000001	-8.231606	 7.654269	 1.738060	-3.358189	-8.305429	-0.863378	 9.706005	 11.554030	-1.181942	-90.824140	 67.250140	-177.149500	-6.481783	 4.516874	-24.517830	 23.548250	-0.098925	-1.274285	-6.717782	-26.099790	-6.146864	-2.027600	 6.559038	 9.033609	-5.188889	 0.308190	 3.541030	-5.234859	 0.342567	 0.430617	 4.719398	 24.740560	-8.730562	 5.796055	-19.031200	 2.564415	 88.425670	 64.417750	 176.379500	 6.289210	 6.138897	 9.708090	-24.859320	-9.181236	 28.082770	 2.780757	-24.401500	 5.731970	 1.803333	 3.979147	-15.098590	 4.898592	 3.004813	-9.310344	 5.224449	 0.395017	 2.014677
-0.002540	 0.061917	 1.277882	 0.293208	 6.929527	 0.647267	 4.269338	-10.247410	 178.185300	 2.094292	-10.322760	 0.450202	 0.994952	 68.517300	-1.175716	-2.385832	 28.452790	-0.000001	 2.018589	-8.967599	-178.245300	-1.319838	-7.364984	 0.482269	 3.533550	 66.827810	 3.530754	 2.384659	 28.388700	-0.000001	-9.208395	 8.311543	 1.805895	-3.537530	-11.652600	-1.199039	 9.342086	 14.579620	-1.550864	-90.962780	 65.394240	-177.797600	-4.336839	 6.130365	-26.430100	 20.283030	-0.046146	-1.776923	-7.394601	-28.687080	-8.372425	-2.027600	 6.559038	 9.033609	-5.188889	 0.308190	 3.541030	-5.234859	 0.342567	 0.430617	 4.160093	 26.644830	-8.820339	 6.132960	-20.922930	 2.506505	 88.494670	 61.680580	 176.927800	 3.219542	 6.661596	 10.803360	-23.107510	-8.431293	 29.341210	 0.825262	-25.901490	 6.293298	 1.803333	 3.979147	-15.098590	 4.898592	 3.004813	-9.310344	 5.224449	 0.395017	 2.014677
-0.003078	 0.075743	 1.276253	 0.701486	 9.887928	 0.613118	 3.739023	-15.292160	 178.340000	 2.000619	-12.559910	 0.525932	 2.239469	 68.597580	-2.480246	-2.385833	 28.452760	 0.000004	 1.375262	-13.555270	-178.258700	-1.656201	-8.794668	 0.534260	 3.165624	 66.797410	 4.247581	 2.384659	 28.388700	-0.000001	-10.316720	 8.598649	 1.805732	-3.623937	-15.059790	-1.499455	 8.762365	 16.997980	-1.589098	-91.920270	 64.850760	 179.619700	-1.961073	 9.356763	-26.060910	 18.294340	 0.014245	-2.361167	-8.226024	-30.478830	-10.520720	-2.027600	 6.559038	 9.033609	-5.188889	 0.308190	 3.541030	-5.234859	 0.342567	 0.430617	 3.476095	 26.507650	-8.811853	 6.159667	-21.624880	 2.425427	 89.395880	 60.672690	 179.109700	-0.622959	 9.435129	 9.180553	-21.252170	-7.959419	 31.935870	-0.614525	-27.584940	 6.918283	 1.803333	 3.979147	-15.098590	 4.898592	 3.004813	-9.310344	 5.224449	 0.395017	 2.014677
-0.004292	 0.096172	 1.274373	 1.589841	 14.460610	 0.562366	 2.533400	-22.145110	 178.364700	 2.439991	-14.086950	 0.695806	 3.040492	 67.861530	-3.937586	-2.385832	 28.452790	-0.000001	 0.426596	-20.056310	-178.395200	-1.600314	-9.908220	 0.610912	 1.742155	 66.008000	 5.801428	 2.384659	 28.388700	-0.000001	-11.725110	 8.370396	 1.756500	-3.787365	-17.549530	-1.875738	 7.843194	 17.991990	-1.322937	-93.138360	 65.232260	 176.341400	 1.317114	 13.838260	-24.653740	 17.673860	-0.273613	-5.967729	-8.192419	-31.860820	-11.776890	-2.027600	 6.559038	 9.033609	-5.188889	 0.308190	 3.541030	-5.234859	 0.342567	 0.430617	 2.858530	 24.744670	-8.749255	 5.831047	-21.536550	 2.127233	 90.687030	 60.416880	-177.932200	-4.901813	 14.062550	 8.315138	-18.849360	-6.799109	 34.099240	-0.821270	-29.434280	 7.830502	 1.803333	 3.979147	-15.098590	 4.898592	 3.004813	-9.310344	 5.224449	 0.395017	 2.014677
